<svg width="200" height="60" viewBox="0 0 200 60" fill="none" xmlns="http://www.w3.org/2000/svg">
<path d="M82.2608 14.192C84.4448 14.248 86.1808 14.6307 87.4688 15.34C88.7755 16.0307 89.7088 16.9267 90.2688 18.028C90.8475 19.1293 91.1368 20.3333 91.1368 21.64C91.1368 22.48 90.9875 23.3387 90.6888 24.216C90.4088 25.0933 89.9235 25.9053 89.2328 26.652C88.5608 27.38 87.6555 27.9773 86.5168 28.444C85.3782 28.9107 83.9595 29.1627 82.2608 29.2V32.28H78.4528V29.2C76.7355 29.1627 75.2982 28.9107 74.1408 28.444C73.0022 27.9773 72.0968 27.3707 71.4248 26.624C70.7528 25.8773 70.2768 25.0747 69.9968 24.216C69.7168 23.3387 69.5768 22.48 69.5768 21.64C69.5768 20.3333 69.8568 19.1293 70.4168 18.028C70.9955 16.9267 71.9288 16.0307 73.2168 15.34C74.5235 14.6307 76.2688 14.248 78.4528 14.192V11.728H82.2608V14.192ZM78.4528 17.496C76.6422 17.5707 75.3728 17.9907 74.6448 18.756C73.9168 19.5027 73.5528 20.4547 73.5528 21.612C73.5528 22.8627 73.9448 23.88 74.7288 24.664C75.5128 25.4293 76.7542 25.8493 78.4528 25.924V17.496ZM82.2608 25.924C83.9782 25.8493 85.2195 25.4293 85.9848 24.664C86.7688 23.88 87.1608 22.8627 87.1608 21.612C87.1608 20.4547 86.7968 19.5027 86.0688 18.756C85.3595 17.9907 84.0902 17.5707 82.2608 17.496V25.924ZM101.311 12.008C103.887 12.008 105.763 12.568 106.939 13.688C108.133 14.7893 108.731 16.3107 108.731 18.252C108.731 19.4093 108.488 20.5013 108.003 21.528C107.517 22.536 106.705 23.348 105.567 23.964C104.447 24.58 102.916 24.888 100.975 24.888H99.1547V32H94.9267V12.008H101.311ZM101.087 15.48H99.1547V21.416H100.555C101.749 21.416 102.692 21.1827 103.383 20.716C104.092 20.2307 104.447 19.456 104.447 18.392C104.447 16.4507 103.327 15.48 101.087 15.48ZM124.017 32H112.509V12.008H124.017V15.48H116.737V19.876H123.513V23.348H116.737V28.5H124.017V32ZM153.321 32H128.177V12.008H132.405V28.472H138.621V12.008H142.877V28.472H149.093V12.008H153.321V32ZM176.508 21.976C176.508 24.048 176.163 25.8587 175.472 27.408C174.8 28.9387 173.764 30.1333 172.364 30.992C170.964 31.8507 169.172 32.28 166.988 32.28C164.823 32.28 163.031 31.8507 161.612 30.992C160.212 30.1333 159.167 28.9293 158.476 27.38C157.804 25.8307 157.468 24.02 157.468 21.948C157.468 19.876 157.804 18.0747 158.476 16.544C159.167 15.0133 160.212 13.828 161.612 12.988C163.031 12.1293 164.832 11.7 167.016 11.7C169.182 11.7 170.964 12.1293 172.364 12.988C173.764 13.828 174.8 15.0227 175.472 16.572C176.163 18.1027 176.508 19.904 176.508 21.976ZM161.92 21.976C161.92 24.0667 162.322 25.7187 163.124 26.932C163.927 28.1267 165.215 28.724 166.988 28.724C168.799 28.724 170.096 28.1267 170.88 26.932C171.664 25.7187 172.056 24.0667 172.056 21.976C172.056 19.8667 171.664 18.2147 170.88 17.02C170.096 15.8253 168.808 15.228 167.016 15.228C165.224 15.228 163.927 15.8253 163.124 17.02C162.322 18.2147 161.92 19.8667 161.92 21.976ZM196.945 32H192.129L184.877 21.864V32H180.649V12.008H184.877V21.696L192.045 12.008H196.553L189.273 21.612L196.945 32Z" fill="white"/>
<path d="M87.1164 45.704C87.1164 46.592 86.9684 47.368 86.6724 48.032C86.3844 48.688 85.9404 49.2 85.3404 49.568C84.7404 49.936 83.9724 50.12 83.0364 50.12C82.1084 50.12 81.3404 49.936 80.7324 49.568C80.1324 49.2 79.6844 48.684 79.3884 48.02C79.1004 47.356 78.9564 46.58 78.9564 45.692C78.9564 44.804 79.1004 44.032 79.3884 43.376C79.6844 42.72 80.1324 42.212 80.7324 41.852C81.3404 41.484 82.1124 41.3 83.0484 41.3C83.9764 41.3 84.7404 41.484 85.3404 41.852C85.9404 42.212 86.3844 42.724 86.6724 43.388C86.9684 44.044 87.1164 44.816 87.1164 45.704ZM80.8644 45.704C80.8644 46.6 81.0364 47.308 81.3804 47.828C81.7244 48.34 82.2764 48.596 83.0364 48.596C83.8124 48.596 84.3684 48.34 84.7044 47.828C85.0404 47.308 85.2084 46.6 85.2084 45.704C85.2084 44.8 85.0404 44.092 84.7044 43.58C84.3684 43.068 83.8164 42.812 83.0484 42.812C82.2804 42.812 81.7244 43.068 81.3804 43.58C81.0364 44.092 80.8644 44.8 80.8644 45.704ZM95.9112 50H94.0992V46.304H90.7032V50H88.8912V41.432H90.7032V44.792H94.0992V41.432H95.9112V50ZM104.847 50H103.035V42.944H100.935C100.887 43.312 100.835 43.712 100.779 44.144C100.731 44.576 100.675 45.016 100.611 45.464C100.555 45.904 100.495 46.324 100.431 46.724C100.367 47.116 100.303 47.464 100.239 47.768C100.135 48.264 99.995 48.688 99.819 49.04C99.651 49.392 99.415 49.66 99.111 49.844C98.815 50.028 98.427 50.12 97.947 50.12C97.635 50.12 97.347 50.076 97.083 49.988V48.5C97.187 48.532 97.287 48.56 97.383 48.584C97.487 48.608 97.599 48.62 97.719 48.62C97.951 48.62 98.127 48.5 98.247 48.26C98.375 48.012 98.503 47.552 98.631 46.88C98.679 46.624 98.747 46.224 98.835 45.68C98.923 45.136 99.019 44.5 99.123 43.772C99.235 43.036 99.339 42.256 99.435 41.432H104.847V50ZM112.252 50L111.628 47.96H108.508L107.884 50H105.928L108.952 41.396H111.172L114.208 50H112.252ZM110.572 44.444C110.532 44.308 110.48 44.136 110.416 43.928C110.352 43.72 110.288 43.508 110.224 43.292C110.16 43.076 110.108 42.888 110.068 42.728C110.028 42.888 109.972 43.088 109.9 43.328C109.836 43.56 109.772 43.784 109.708 44C109.652 44.208 109.608 44.356 109.576 44.444L108.964 46.436H111.196L110.572 44.444ZM122.194 38.612C122.154 39.028 122.038 39.396 121.846 39.716C121.654 40.028 121.354 40.272 120.946 40.448C120.538 40.624 119.99 40.712 119.302 40.712C118.598 40.712 118.046 40.628 117.646 40.46C117.254 40.284 116.974 40.04 116.806 39.728C116.638 39.416 116.538 39.044 116.506 38.612H118.102C118.142 39.052 118.254 39.344 118.438 39.488C118.622 39.632 118.922 39.704 119.338 39.704C119.682 39.704 119.962 39.628 120.178 39.476C120.402 39.316 120.534 39.028 120.574 38.612H122.194ZM115.294 41.432H116.926V45.572C116.926 45.772 116.922 45.996 116.914 46.244C116.906 46.492 116.898 46.736 116.89 46.976C116.882 47.208 116.874 47.412 116.866 47.588C116.858 47.756 116.85 47.872 116.842 47.936H116.878L120.838 41.432H123.01V50H121.39V45.884C121.39 45.668 121.394 45.432 121.402 45.176C121.41 44.912 121.418 44.66 121.426 44.42C121.442 44.18 121.454 43.972 121.462 43.796C121.478 43.612 121.49 43.492 121.498 43.436H121.45L117.478 50H115.294V41.432ZM132.192 50H130.38V46.304H126.984V50H125.172V41.432H126.984V44.792H130.38V41.432H132.192V50ZM133.856 47.426C133.828 47.322 133.81 47.21 133.802 47.09C133.794 46.97 133.79 46.868 133.79 46.784C133.79 46.7 133.794 46.598 133.802 46.478C133.81 46.358 133.828 46.244 133.856 46.136H137.042C137.07 46.244 137.088 46.358 137.096 46.478C137.104 46.598 137.108 46.7 137.108 46.784C137.108 46.868 137.104 46.97 137.096 47.09C137.088 47.21 137.07 47.322 137.042 47.426H133.856ZM142.332 50L140.268 43.28H140.22C140.228 43.44 140.24 43.68 140.256 44C140.272 44.32 140.288 44.664 140.304 45.032C140.32 45.392 140.328 45.72 140.328 46.016V50H138.708V41.432H141.18L143.208 47.984H143.244L145.392 41.432H147.864V50H146.172V45.944C146.172 45.672 146.176 45.36 146.184 45.008C146.2 44.656 146.212 44.324 146.22 44.012C146.236 43.692 146.248 43.452 146.256 43.292H146.208L144 50H142.332ZM155.272 50L154.648 47.96H151.528L150.904 50H148.948L151.972 41.396H154.192L157.228 50H155.272ZM153.592 44.444C153.552 44.308 153.5 44.136 153.436 43.928C153.372 43.72 153.308 43.508 153.244 43.292C153.18 43.076 153.128 42.888 153.088 42.728C153.048 42.888 152.992 43.088 152.92 43.328C152.856 43.56 152.792 43.784 152.728 44C152.672 44.208 152.628 44.356 152.596 44.444L151.984 46.436H154.216L153.592 44.444ZM161.049 41.432C162.153 41.432 162.957 41.672 163.461 42.152C163.973 42.624 164.229 43.276 164.229 44.108C164.229 44.604 164.125 45.072 163.917 45.512C163.709 45.944 163.361 46.292 162.873 46.556C162.393 46.82 161.737 46.952 160.905 46.952H160.125V50H158.313V41.432H161.049ZM160.953 42.92H160.125V45.464H160.725C161.237 45.464 161.641 45.364 161.937 45.164C162.241 44.956 162.393 44.624 162.393 44.168C162.393 43.336 161.913 42.92 160.953 42.92ZM172.832 50H170.768L167.66 45.656V50H165.848V41.432H167.66V45.584L170.732 41.432H172.664L169.544 45.548L172.832 50ZM178.843 50H173.911V41.432H178.843V42.92H175.723V44.804H178.627V46.292H175.723V48.5H178.843V50ZM183.926 50H182.114V42.944H179.786V41.432H186.254V42.944H183.926V50Z" fill="white"/>
<path opacity="0.2" d="M54.6484 59.0669C54.6484 58.5552 43.1741 58.1338 29.0368 58.1338C14.8994 58.1338 3.42517 58.5552 3.42517 59.0669C3.42517 59.5786 14.8994 60 29.0368 60C43.207 60 54.6484 59.5786 54.6484 59.0669Z" fill="#5D5D5D"/>
<path d="M29.3984 11.8098C40.5439 11.8098 49.5852 20.0873 49.5852 30.2913V48.7727H29.3984C18.2529 48.7727 9.21161 40.4952 9.21161 30.2913V11.8098H29.3984Z" fill="white"/>
<path opacity="0.3" d="M46.692 20.7797C45.0152 22.5556 43.996 24.8733 43.996 27.4017C43.996 31.1642 46.2317 34.4451 49.5523 36.221V30.2913C49.5523 26.8298 48.5331 23.579 46.692 20.7797Z" fill="white"/>
<path d="M38.7685 13.9469C35.6122 15.6024 33.5081 18.7027 33.5081 22.2846C33.5081 27.5822 38.2096 31.8866 43.996 31.8866C46.0344 31.8866 47.9413 31.3448 49.5523 30.4116V30.2913C49.5523 23.1876 45.1796 17.0171 38.7685 13.9469Z" fill="white"/>
<path opacity="0.5" d="M22.9215 15.3909C17.7269 15.3909 12.9596 17.0464 9.21161 19.8457V30.3205C9.21161 40.5245 18.2529 48.802 29.3984 48.802H39.0644C42.5823 45.2502 44.7193 40.5546 44.7193 35.3773C44.7193 24.3306 34.9547 15.3909 22.9215 15.3909Z" fill="#F8F6EC"/>
<path d="M49.5523 48.7426L29.3984 48.7727C18.2529 48.7727 9.21161 40.4951 9.21161 30.2912V11.8398L49.5523 48.7426Z" fill="white"/>
<path opacity="0.3" d="M12.335 18.4318C12.335 32.4584 24.7627 43.8062 40.0507 43.8062C41.3658 43.8062 42.648 43.7159 43.8974 43.5654L12.598 14.9402C12.4336 16.084 12.335 17.2579 12.335 18.4318Z" fill="white"/>
<path opacity="0.3" d="M49.5523 48.7727L9.37601 11.9904C14.1104 18.4619 19.568 25.0237 25.1243 30.4417C29.4642 34.6557 41.9905 44.077 49.5523 48.7727Z" fill="white"/>
<path opacity="0.3" d="M22.3955 23.8799L9.21161 11.8398V30.3213C9.21161 38.4784 14.9981 45.4014 22.9873 47.8396C19.568 44.679 17.4639 40.3446 17.4639 35.5888C17.4639 31.0738 19.3379 26.9802 22.3955 23.8799Z" fill="white"/>
<path opacity="0.3" d="M40.3466 40.3447C36.9274 44.1674 31.7327 46.6356 25.9134 46.6356C22.0338 46.6356 18.4173 45.552 15.4254 43.6858C19.042 46.8464 23.9407 48.8029 29.3655 48.8029H49.5523V48.7728L40.3466 40.3447Z" fill="white"/>
<path opacity="0.3" d="M10.3952 22.8866C10.3952 19.9067 10.9541 17.0171 12.0062 14.3683L9.21161 11.8398V30.3213C9.21161 40.5252 18.2529 48.8028 29.3984 48.8028H49.5852V48.7727L47.5797 46.9366C44.6536 47.8998 41.5302 48.4115 38.2425 48.4115C22.8558 48.3814 10.3952 36.9734 10.3952 22.8866Z" fill="#F8F6EC"/>
<path d="M49.2235 52.3546C50.6372 51.9934 52.1167 52.776 52.4784 54.0703C52.8729 55.3646 52.0181 56.7191 50.5715 57.0502C49.1578 57.4114 47.6783 56.6288 47.3166 55.3345C46.955 54.0402 47.8098 52.7158 49.2235 52.3546ZM48.6975 50.5185C46.1659 51.1506 44.6535 53.4984 45.344 55.8161C46.0015 58.1338 48.5988 59.5184 51.1304 58.8863C53.662 58.2542 55.1743 55.8763 54.4839 53.5887C53.8264 51.271 51.229 49.9165 48.6975 50.5185Z" fill="white"/>
<path opacity="0.5" d="M52.0506 56.1768C51.6889 56.5982 51.1958 56.9294 50.604 57.0799C49.1902 57.4411 47.7108 56.6584 47.3491 55.3641C47.0861 54.4009 47.4477 53.4377 48.2368 52.8658C47.8423 52.3541 47.5135 51.7822 47.1847 51.2103C45.6066 52.2337 44.8175 54.0698 45.3436 55.8758C46.0011 58.1936 48.5984 59.5782 51.13 58.9461C52.3136 58.6451 53.267 57.9829 53.8917 57.1099C53.267 56.8089 52.6424 56.5079 52.0506 56.1768Z" fill="white"/>
<path d="M10.1646 52.3546C11.5783 52.0235 13.0578 52.8061 13.4195 54.1004C13.7811 55.3947 12.9263 56.7492 11.5126 57.0803C10.0989 57.4114 8.61937 56.6288 8.25772 55.3345C7.89606 54.0402 8.75088 52.6857 10.1646 52.3546ZM9.63857 50.5185C7.107 51.1205 5.59464 53.4984 6.25219 55.8161C6.90974 58.1338 9.50706 59.5184 12.0386 58.9164C14.5702 58.3144 16.0826 55.9365 15.4579 53.6188C14.7675 51.3011 12.1701 49.9165 9.63857 50.5185Z" fill="white"/>
<path opacity="0.5" d="M12.9596 56.207C12.598 56.6284 12.1048 56.9595 11.513 57.0799C10.0993 57.411 8.61978 56.6284 8.25813 55.3341C7.99511 54.3709 8.38964 53.4077 9.14582 52.8358C8.75129 52.3241 8.42252 51.7522 8.12662 51.1803C6.5485 52.1736 5.72656 54.0097 6.2526 55.8157C6.91015 58.1334 9.50747 59.518 12.039 58.916C13.2226 58.6451 14.209 57.9528 14.8008 57.0799C14.1432 56.8391 13.5514 56.5381 12.9596 56.207Z" fill="white"/>
<path d="M10.4938 10.5455C9.86915 10.5455 9.34311 10.0639 9.34311 9.49205C9.34311 7.02384 8.58693 5.15763 7.14031 3.92353C4.80601 1.90682 1.28812 2.11752 1.25524 2.11752C0.630565 2.17772 0.071647 1.72622 0.00589198 1.15432C-0.0598631 0.582418 0.4333 0.0707164 1.05797 0.0105162C1.25524 0.0105162 5.59507 -0.290485 8.68556 2.32822C10.6582 3.98373 11.6445 6.39174 11.6445 9.46194C11.6445 10.0639 11.1514 10.5455 10.4938 10.5455Z" fill="white"/>
</svg>
